<svg id="visual" viewBox="0 0 900 600" width="900" height="600" xmlns="http://www.w3.org/2000/svg" xmlns:xlink="http://www.w3.org/1999/xlink" version="1.1"><path d="M0 37L13.7 46C27.3 55 54.7 73 82 83C109.3 93 136.7 95 163.8 91C191 87 218 77 245.2 75C272.3 73 299.7 79 327 85C354.3 91 381.7 97 409 100C436.3 103 463.7 103 491 100C518.3 97 545.7 91 573 80C600.3 69 627.7 53 654.8 50C682 47 709 57 736.2 65C763.3 73 790.7 79 818 78C845.3 77 872.7 69 886.3 65L900 61L900 0L886.3 0C872.7 0 845.3 0 818 0C790.7 0 763.3 0 736.2 0C709 0 682 0 654.8 0C627.7 0 600.3 0 573 0C545.7 0 518.3 0 491 0C463.7 0 436.3 0 409 0C381.7 0 354.3 0 327 0C299.7 0 272.3 0 245.2 0C218 0 191 0 163.8 0C136.7 0 109.3 0 82 0C54.7 0 27.3 0 13.7 0L0 0Z" fill="#b55070"></path><path d="M0 109L13.7 124C27.3 139 54.7 169 82 183C109.3 197 136.7 195 163.8 186C191 177 218 161 245.2 151C272.3 141 299.7 137 327 140C354.3 143 381.7 153 409 155C436.3 157 463.7 151 491 156C518.3 161 545.7 177 573 172C600.3 167 627.7 141 654.8 130C682 119 709 123 736.2 129C763.3 135 790.7 143 818 144C845.3 145 872.7 139 886.3 136L900 133L900 59L886.3 63C872.7 67 845.3 75 818 76C790.7 77 763.3 71 736.2 63C709 55 682 45 654.8 48C627.7 51 600.3 67 573 78C545.7 89 518.3 95 491 98C463.7 101 436.3 101 409 98C381.7 95 354.3 89 327 83C299.7 77 272.3 71 245.2 73C218 75 191 85 163.8 89C136.7 93 109.3 91 82 81C54.7 71 27.3 53 13.7 44L0 35Z" fill="#a6385c"></path><path d="M0 277L13.7 284C27.3 291 54.7 305 82 309C109.3 313 136.7 307 163.8 306C191 305 218 309 245.2 309C272.3 309 299.7 305 327 296C354.3 287 381.7 273 409 285C436.3 297 463.7 335 491 355C518.3 375 545.7 377 573 366C600.3 355 627.7 331 654.8 321C682 311 709 315 736.2 322C763.3 329 790.7 339 818 346C845.3 353 872.7 357 886.3 359L900 361L900 131L886.3 134C872.7 137 845.3 143 818 142C790.7 141 763.3 133 736.2 127C709 121 682 117 654.8 128C627.7 139 600.3 165 573 170C545.7 175 518.3 159 491 154C463.7 149 436.3 155 409 153C381.7 151 354.3 141 327 138C299.7 135 272.3 139 245.2 149C218 159 191 175 163.8 184C136.7 193 109.3 195 82 181C54.7 167 27.3 137 13.7 122L0 107Z" fill="#961d48"></path><path d="M0 421L13.7 426C27.3 431 54.7 441 82 431C109.3 421 136.7 391 163.8 378C191 365 218 369 245.2 377C272.3 385 299.7 397 327 400C354.3 403 381.7 397 409 414C436.3 431 463.7 471 491 480C518.3 489 545.7 467 573 455C600.3 443 627.7 441 654.8 442C682 443 709 447 736.2 448C763.3 449 790.7 447 818 444C845.3 441 872.7 437 886.3 435L900 433L900 359L886.3 357C872.7 355 845.3 351 818 344C790.7 337 763.3 327 736.2 320C709 313 682 309 654.8 319C627.7 329 600.3 353 573 364C545.7 375 518.3 373 491 353C463.7 333 436.3 295 409 283C381.7 271 354.3 285 327 294C299.7 303 272.3 307 245.2 307C218 307 191 303 163.8 304C136.7 305 109.3 311 82 307C54.7 303 27.3 289 13.7 282L0 275Z" fill="#821a3f"></path><path d="M0 601L13.7 601C27.3 601 54.7 601 82 601C109.3 601 136.7 601 163.8 601C191 601 218 601 245.2 601C272.3 601 299.7 601 327 601C354.3 601 381.7 601 409 601C436.3 601 463.7 601 491 601C518.3 601 545.7 601 573 601C600.3 601 627.7 601 654.8 601C682 601 709 601 736.2 601C763.3 601 790.7 601 818 601C845.3 601 872.7 601 886.3 601L900 601L900 431L886.3 433C872.7 435 845.3 439 818 442C790.7 445 763.3 447 736.2 446C709 445 682 441 654.8 440C627.7 439 600.3 441 573 453C545.7 465 518.3 487 491 478C463.7 469 436.3 429 409 412C381.7 395 354.3 401 327 398C299.7 395 272.3 383 245.2 375C218 367 191 363 163.8 376C136.7 389 109.3 419 82 429C54.7 439 27.3 429 13.7 424L0 419Z" fill="#6e1736"></path></svg>