<svg id="visual" viewBox="0 0 900 600" width="900" height="600" xmlns="http://www.w3.org/2000/svg" xmlns:xlink="http://www.w3.org/1999/xlink" version="1.1"><path d="M0 13L15 19C30 25 60 37 90 43C120 49 150 49 180 46C210 43 240 37 270 33C300 29 330 27 360 30C390 33 420 41 450 46C480 51 510 53 540 54C570 55 600 55 630 54C660 53 690 51 720 49C750 47 780 45 810 46C840 47 870 51 885 53L900 55L900 0L885 0C870 0 840 0 810 0C780 0 750 0 720 0C690 0 660 0 630 0C600 0 570 0 540 0C510 0 480 0 450 0C420 0 390 0 360 0C330 0 300 0 270 0C240 0 210 0 180 0C150 0 120 0 90 0C60 0 30 0 15 0L0 0Z" fill="#b55070"></path><path d="M0 73L15 85C30 97 60 121 90 132C120 143 150 141 180 126C210 111 240 83 270 81C300 79 330 103 360 107C390 111 420 95 450 87C480 79 510 79 540 81C570 83 600 87 630 96C660 105 690 119 720 117C750 115 780 97 810 89C840 81 870 83 885 84L900 85L900 53L885 51C870 49 840 45 810 44C780 43 750 45 720 47C690 49 660 51 630 52C600 53 570 53 540 52C510 51 480 49 450 44C420 39 390 31 360 28C330 25 300 27 270 31C240 35 210 41 180 44C150 47 120 47 90 41C60 35 30 23 15 17L0 11Z" fill="#ab4162"></path><path d="M0 271L15 284C30 297 60 323 90 309C120 295 150 241 180 212C210 183 240 179 270 178C300 177 330 179 360 197C390 215 420 249 450 258C480 267 510 251 540 257C570 263 600 291 630 300C660 309 690 299 720 274C750 249 780 209 810 211C840 213 870 257 885 279L900 301L900 83L885 82C870 81 840 79 810 87C780 95 750 113 720 115C690 117 660 103 630 94C600 85 570 81 540 79C510 77 480 77 450 85C420 93 390 109 360 105C330 101 300 77 270 79C240 81 210 109 180 124C150 139 120 141 90 130C60 119 30 95 15 83L0 71Z" fill="#a13055"></path><path d="M0 379L15 386C30 393 60 407 90 401C120 395 150 369 180 339C210 309 240 275 270 273C300 271 330 301 360 335C390 369 420 407 450 404C480 401 510 357 540 346C570 335 600 357 630 377C660 397 690 415 720 393C750 371 780 309 810 314C840 319 870 391 885 427L900 463L900 299L885 277C870 255 840 211 810 209C780 207 750 247 720 272C690 297 660 307 630 298C600 289 570 261 540 255C510 249 480 265 450 256C420 247 390 213 360 195C330 177 300 175 270 176C240 177 210 181 180 210C150 239 120 293 90 307C60 321 30 295 15 282L0 269Z" fill="#961d48"></path><path d="M0 463L15 468C30 473 60 483 90 498C120 513 150 533 180 526C210 519 240 485 270 478C300 471 330 491 360 496C390 501 420 491 450 477C480 463 510 445 540 450C570 455 600 483 630 495C660 507 690 503 720 501C750 499 780 499 810 500C840 501 870 503 885 504L900 505L900 461L885 425C870 389 840 317 810 312C780 307 750 369 720 391C690 413 660 395 630 375C600 355 570 333 540 344C510 355 480 399 450 402C420 405 390 367 360 333C330 299 300 269 270 271C240 273 210 307 180 337C150 367 120 393 90 399C60 405 30 391 15 384L0 377Z" fill="#881b42"></path><path d="M0 541L15 549C30 557 60 573 90 580C120 587 150 585 180 582C210 579 240 575 270 569C300 563 330 555 360 548C390 541 420 535 450 536C480 537 510 545 540 553C570 561 600 569 630 567C660 565 690 553 720 545C750 537 780 533 810 533C840 533 870 537 885 539L900 541L900 503L885 502C870 501 840 499 810 498C780 497 750 497 720 499C690 501 660 505 630 493C600 481 570 453 540 448C510 443 480 461 450 475C420 489 390 499 360 494C330 489 300 469 270 476C240 483 210 517 180 524C150 531 120 511 90 496C60 481 30 471 15 466L0 461Z" fill="#7b193c"></path><path d="M0 601L15 601C30 601 60 601 90 601C120 601 150 601 180 601C210 601 240 601 270 601C300 601 330 601 360 601C390 601 420 601 450 601C480 601 510 601 540 601C570 601 600 601 630 601C660 601 690 601 720 601C750 601 780 601 810 601C840 601 870 601 885 601L900 601L900 539L885 537C870 535 840 531 810 531C780 531 750 535 720 543C690 551 660 563 630 565C600 567 570 559 540 551C510 543 480 535 450 534C420 533 390 539 360 546C330 553 300 561 270 567C240 573 210 577 180 580C150 583 120 585 90 578C60 571 30 555 15 547L0 539Z" fill="#6e1736"></path></svg>