<svg id="visual" viewBox="0 0 900 600" width="900" height="600" xmlns="http://www.w3.org/2000/svg" xmlns:xlink="http://www.w3.org/1999/xlink" version="1.1"><path d="M0 49L15 50C30 51 60 53 90 48C120 43 150 31 180 24C210 17 240 15 270 17C300 19 330 25 360 31C390 37 420 43 450 43C480 43 510 37 540 40C570 43 600 55 630 60C660 65 690 63 720 58C750 53 780 45 810 45C840 45 870 53 885 57L900 61L900 0L885 0C870 0 840 0 810 0C780 0 750 0 720 0C690 0 660 0 630 0C600 0 570 0 540 0C510 0 480 0 450 0C420 0 390 0 360 0C330 0 300 0 270 0C240 0 210 0 180 0C150 0 120 0 90 0C60 0 30 0 15 0L0 0Z" fill="#b55070"></path><path d="M0 103L15 102C30 101 60 99 90 97C120 95 150 93 180 87C210 81 240 71 270 70C300 69 330 77 360 85C390 93 420 101 450 98C480 95 510 81 540 77C570 73 600 79 630 86C660 93 690 101 720 103C750 105 780 101 810 101C840 101 870 105 885 107L900 109L900 59L885 55C870 51 840 43 810 43C780 43 750 51 720 56C690 61 660 63 630 58C600 53 570 41 540 38C510 35 480 41 450 41C420 41 390 35 360 29C330 23 300 17 270 15C240 13 210 15 180 22C150 29 120 41 90 46C60 51 30 49 15 48L0 47Z" fill="#ab4162"></path><path d="M0 139L15 139C30 139 60 139 90 135C120 131 150 123 180 127C210 131 240 147 270 159C300 171 330 179 360 182C390 185 420 183 450 179C480 175 510 169 540 168C570 167 600 171 630 166C660 161 690 147 720 150C750 153 780 173 810 177C840 181 870 169 885 163L900 157L900 107L885 105C870 103 840 99 810 99C780 99 750 103 720 101C690 99 660 91 630 84C600 77 570 71 540 75C510 79 480 93 450 96C420 99 390 91 360 83C330 75 300 67 270 68C240 69 210 79 180 85C150 91 120 93 90 95C60 97 30 99 15 100L0 101Z" fill="#a13055"></path><path d="M0 277L15 262C30 247 60 217 90 204C120 191 150 195 180 200C210 205 240 211 270 229C300 247 330 277 360 279C390 281 420 255 450 249C480 243 510 257 540 259C570 261 600 251 630 252C660 253 690 265 720 275C750 285 780 293 810 279C840 265 870 229 885 211L900 193L900 155L885 161C870 167 840 179 810 175C780 171 750 151 720 148C690 145 660 159 630 164C600 169 570 165 540 166C510 167 480 173 450 177C420 181 390 183 360 180C330 177 300 169 270 157C240 145 210 129 180 125C150 121 120 129 90 133C60 137 30 137 15 137L0 137Z" fill="#961d48"></path><path d="M0 367L15 350C30 333 60 299 90 288C120 277 150 289 180 293C210 297 240 293 270 311C300 329 330 369 360 372C390 375 420 341 450 329C480 317 510 327 540 320C570 313 600 289 630 292C660 295 690 325 720 346C750 367 780 379 810 365C840 351 870 311 885 291L900 271L900 191L885 209C870 227 840 263 810 277C780 291 750 283 720 273C690 263 660 251 630 250C600 249 570 259 540 257C510 255 480 241 450 247C420 253 390 279 360 277C330 275 300 245 270 227C240 209 210 203 180 198C150 193 120 189 90 202C60 215 30 245 15 260L0 275Z" fill="#881b42"></path><path d="M0 463L15 463C30 463 60 463 90 476C120 489 150 515 180 504C210 493 240 445 270 432C300 419 330 441 360 436C390 431 420 399 450 404C480 409 510 451 540 474C570 497 600 501 630 505C660 509 690 513 720 509C750 505 780 493 810 475C840 457 870 433 885 421L900 409L900 269L885 289C870 309 840 349 810 363C780 377 750 365 720 344C690 323 660 293 630 290C600 287 570 311 540 318C510 325 480 315 450 327C420 339 390 373 360 370C330 367 300 327 270 309C240 291 210 295 180 291C150 287 120 275 90 286C60 297 30 331 15 348L0 365Z" fill="#7b193c"></path><path d="M0 601L15 601C30 601 60 601 90 601C120 601 150 601 180 601C210 601 240 601 270 601C300 601 330 601 360 601C390 601 420 601 450 601C480 601 510 601 540 601C570 601 600 601 630 601C660 601 690 601 720 601C750 601 780 601 810 601C840 601 870 601 885 601L900 601L900 407L885 419C870 431 840 455 810 473C780 491 750 503 720 507C690 511 660 507 630 503C600 499 570 495 540 472C510 449 480 407 450 402C420 397 390 429 360 434C330 439 300 417 270 430C240 443 210 491 180 502C150 513 120 487 90 474C60 461 30 461 15 461L0 461Z" fill="#6e1736"></path></svg>