<svg id="visual" viewBox="0 0 900 600" width="900" height="600" xmlns="http://www.w3.org/2000/svg" xmlns:xlink="http://www.w3.org/1999/xlink" version="1.1"><path d="M0 43L12.5 45C25 47 50 51 75 63C100 75 125 95 150 102C175 109 200 103 225 100C250 97 275 97 300 89C325 81 350 65 375 63C400 61 425 73 450 80C475 87 500 89 525 82C550 75 575 59 600 48C625 37 650 31 675 35C700 39 725 53 750 55C775 57 800 47 825 47C850 47 875 57 887.5 62L900 67L900 0L887.5 0C875 0 850 0 825 0C800 0 775 0 750 0C725 0 700 0 675 0C650 0 625 0 600 0C575 0 550 0 525 0C500 0 475 0 450 0C425 0 400 0 375 0C350 0 325 0 300 0C275 0 250 0 225 0C200 0 175 0 150 0C125 0 100 0 75 0C50 0 25 0 12.5 0L0 0Z" fill="#b55070"></path><path d="M0 103L12.5 105C25 107 50 111 75 123C100 135 125 155 150 157C175 159 200 143 225 138C250 133 275 139 300 136C325 133 350 121 375 115C400 109 425 109 450 112C475 115 500 121 525 120C550 119 575 111 600 98C625 85 650 67 675 64C700 61 725 73 750 76C775 79 800 73 825 74C850 75 875 83 887.5 87L900 91L900 65L887.5 60C875 55 850 45 825 45C800 45 775 55 750 53C725 51 700 37 675 33C650 29 625 35 600 46C575 57 550 73 525 80C500 87 475 85 450 78C425 71 400 59 375 61C350 63 325 79 300 87C275 95 250 95 225 98C200 101 175 107 150 100C125 93 100 73 75 61C50 49 25 45 12.5 43L0 41Z" fill="#ac4364"></path><path d="M0 175L12.5 170C25 165 50 155 75 164C100 173 125 201 150 211C175 221 200 213 225 216C250 219 275 233 300 228C325 223 350 199 375 200C400 201 425 227 450 239C475 251 500 249 525 234C550 219 575 191 600 168C625 145 650 127 675 127C700 127 725 145 750 160C775 175 800 187 825 194C850 201 875 203 887.5 204L900 205L900 89L887.5 85C875 81 850 73 825 72C800 71 775 77 750 74C725 71 700 59 675 62C650 65 625 83 600 96C575 109 550 117 525 118C500 119 475 113 450 110C425 107 400 107 375 113C350 119 325 131 300 134C275 137 250 131 225 136C200 141 175 157 150 155C125 153 100 133 75 121C50 109 25 105 12.5 103L0 101Z" fill="#a43559"></path><path d="M0 217L12.5 210C25 203 50 189 75 194C100 199 125 223 150 234C175 245 200 243 225 245C250 247 275 253 300 244C325 235 350 211 375 216C400 221 425 255 450 269C475 283 500 277 525 266C550 255 575 239 600 221C625 203 650 183 675 177C700 171 725 179 750 188C775 197 800 207 825 214C850 221 875 225 887.5 227L900 229L900 203L887.5 202C875 201 850 199 825 192C800 185 775 173 750 158C725 143 700 125 675 125C650 125 625 143 600 166C575 189 550 217 525 232C500 247 475 249 450 237C425 225 400 199 375 198C350 197 325 221 300 226C275 231 250 217 225 214C200 211 175 219 150 209C125 199 100 171 75 162C50 153 25 163 12.5 168L0 173Z" fill="#9b264e"></path><path d="M0 271L12.5 287C25 303 50 335 75 342C100 349 125 331 150 318C175 305 200 297 225 317C250 337 275 385 300 387C325 389 350 345 375 345C400 345 425 389 450 395C475 401 500 369 525 346C550 323 575 309 600 319C625 329 650 363 675 359C700 355 725 313 750 321C775 329 800 387 825 394C850 401 875 357 887.5 335L900 313L900 227L887.5 225C875 223 850 219 825 212C800 205 775 195 750 186C725 177 700 169 675 175C650 181 625 201 600 219C575 237 550 253 525 264C500 275 475 281 450 267C425 253 400 219 375 214C350 209 325 233 300 242C275 251 250 245 225 243C200 241 175 243 150 232C125 221 100 197 75 192C50 187 25 201 12.5 208L0 215Z" fill="#901c45"></path><path d="M0 475L12.5 476C25 477 50 479 75 489C100 499 125 517 150 512C175 507 200 479 225 476C250 473 275 495 300 509C325 523 350 529 375 533C400 537 425 539 450 533C475 527 500 513 525 508C550 503 575 507 600 501C625 495 650 479 675 472C700 465 725 467 750 475C775 483 800 497 825 502C850 507 875 503 887.5 501L900 499L900 311L887.5 333C875 355 850 399 825 392C800 385 775 327 750 319C725 311 700 353 675 357C650 361 625 327 600 317C575 307 550 321 525 344C500 367 475 399 450 393C425 387 400 343 375 343C350 343 325 387 300 385C275 383 250 335 225 315C200 295 175 303 150 316C125 329 100 347 75 340C50 333 25 301 12.5 285L0 269Z" fill="#851a40"></path><path d="M0 529L12.5 531C25 533 50 537 75 541C100 545 125 549 150 545C175 541 200 529 225 533C250 537 275 557 300 567C325 577 350 577 375 577C400 577 425 577 450 569C475 561 500 545 525 543C550 541 575 553 600 553C625 553 650 541 675 537C700 533 725 537 750 545C775 553 800 565 825 565C850 565 875 553 887.5 547L900 541L900 497L887.5 499C875 501 850 505 825 500C800 495 775 481 750 473C725 465 700 463 675 470C650 477 625 493 600 499C575 505 550 501 525 506C500 511 475 525 450 531C425 537 400 535 375 531C350 527 325 521 300 507C275 493 250 471 225 474C200 477 175 505 150 510C125 515 100 497 75 487C50 477 25 475 12.5 474L0 473Z" fill="#79193b"></path><path d="M0 601L12.5 601C25 601 50 601 75 601C100 601 125 601 150 601C175 601 200 601 225 601C250 601 275 601 300 601C325 601 350 601 375 601C400 601 425 601 450 601C475 601 500 601 525 601C550 601 575 601 600 601C625 601 650 601 675 601C700 601 725 601 750 601C775 601 800 601 825 601C850 601 875 601 887.5 601L900 601L900 539L887.5 545C875 551 850 563 825 563C800 563 775 551 750 543C725 535 700 531 675 535C650 539 625 551 600 551C575 551 550 539 525 541C500 543 475 559 450 567C425 575 400 575 375 575C350 575 325 575 300 565C275 555 250 535 225 531C200 527 175 539 150 543C125 547 100 543 75 539C50 535 25 531 12.5 529L0 527Z" fill="#6e1736"></path></svg>